<?xml version="1.0" encoding="utf-8"?>
<!-- Generator: Adobe Illustrator 19.2.1, SVG Export Plug-In . SVG Version: 6.00 Build 0)  -->
<svg version="1.1" id="Layer_1" xmlns="http://www.w3.org/2000/svg" xmlns:xlink="http://www.w3.org/1999/xlink" x="0px" y="0px"
	 viewBox="0 0 14 14" style="enable-background:new 0 0 14 14;" xml:space="preserve">
<style type="text/css">
	.st0{fill:#FF3333;}
	.st1{fill:#FFFFFF;}
</style>
<path class="st0" d="M0,3c0-1.7,1.3-3,3-3h8c1.7,0,3,1.3,3,3v8c0,1.7-1.3,3-3,3H3c-1.7,0-3-1.3-3-3V3z"/>
<g>
	<path class="st1" d="M5.5,8.4c0,0.3,0.1,0.6,0.3,0.7C6,9.4,6.4,9.6,7,9.6c0.4,0,0.7,0,0.9-0.1C8.3,9.3,8.5,9,8.5,8.6
		c0-0.2-0.1-0.4-0.3-0.6C8,7.9,7.7,7.8,7.2,7.7L6.4,7.6C5.7,7.4,5.1,7.2,4.9,7C4.4,6.7,4.1,6.2,4.1,5.4c0-0.6,0.2-1.2,0.7-1.6
		S6,3.2,6.9,3.2c0.8,0,1.4,0.2,2,0.6c0.5,0.4,0.8,1,0.9,1.8H8.3c0-0.4-0.2-0.7-0.6-0.9C7.5,4.5,7.2,4.5,6.8,4.5
		c-0.4,0-0.7,0.1-1,0.2C5.6,4.8,5.5,5.1,5.5,5.3c0,0.3,0.1,0.4,0.4,0.6C6,6,6.3,6.1,6.8,6.2l1.3,0.3c0.6,0.1,1,0.3,1.2,0.5
		C9.8,7.4,10,7.9,10,8.5c0,0.7-0.3,1.2-0.8,1.6C8.7,10.5,8,10.8,7,10.8c-0.9,0-1.7-0.2-2.2-0.6C4.3,9.7,4,9.1,4,8.4H5.5z"/>
</g>
</svg>
