<?xml version="1.0" encoding="utf-8"?>
<!-- Generator: Adobe Illustrator 19.2.1, SVG Export Plug-In . SVG Version: 6.00 Build 0)  -->
<svg version="1.1" id="Layer_1" xmlns="http://www.w3.org/2000/svg" xmlns:xlink="http://www.w3.org/1999/xlink" x="0px" y="0px"
	 viewBox="0 0 14 14" style="enable-background:new 0 0 14 14;" xml:space="preserve">
<style type="text/css">
	.st0{fill:#95A4A9;}
	.st1{fill:#FFFFFF;}
</style>
<path class="st0" d="M0,3c0-1.7,1.3-3,3-3h8c1.7,0,3,1.3,3,3v8c0,1.7-1.3,3-3,3H3c-1.7,0-3-1.3-3-3V3z"/>
<g>
	<path class="st1" d="M4.8,4.1C5.4,3.5,6.2,3.2,7,3.2c1.2,0,2.1,0.4,2.6,1.2c0.3,0.4,0.5,0.9,0.5,1.3H8.7C8.6,5.4,8.4,5.2,8.3,5
		C8,4.7,7.6,4.5,7.1,4.5c-0.5,0-1,0.2-1.3,0.7C5.5,5.6,5.4,6.2,5.4,7.1s0.2,1.4,0.5,1.8c0.3,0.4,0.7,0.6,1.2,0.6
		C7.6,9.5,8,9.3,8.3,9c0.1-0.2,0.3-0.5,0.4-0.8h1.5C10,8.9,9.7,9.5,9.2,10c-0.5,0.5-1.2,0.7-2,0.7c-1,0-1.8-0.3-2.4-1
		C4.1,9.1,3.8,8.2,3.8,7C3.8,5.8,4.2,4.8,4.8,4.1z"/>
</g>
</svg>
