<?xml version="1.0" encoding="utf-8"?>
<!-- Generator: Adobe Illustrator 19.2.1, SVG Export Plug-In . SVG Version: 6.00 Build 0)  -->
<svg version="1.1" id="Layer_1" xmlns="http://www.w3.org/2000/svg" xmlns:xlink="http://www.w3.org/1999/xlink" x="0px" y="0px"
	 viewBox="0 0 35 35" style="enable-background:new 0 0 35 35;" xml:space="preserve">
<style type="text/css">
	.st0{fill:#FF9933;}
	.st1{fill:#FFFFFF;}
</style>
<path class="st0" d="M0,17.5C0,27.1,7.9,35,17.5,35S35,27.1,35,17.5S27.1,0,17.5,0S0,7.9,0,17.5z"/>
<path class="st1" d="M25.6,8.3c-2.2-2-5.1-3.1-8.1-3.1c-3.3,0-6.8,1.8-8.7,3.6c-1.8,1.7-3.5,5.1-3.5,8.6c0,6.8,5.5,12.2,12.2,12.2
	s12.2-5.5,12.2-12.2C29.8,14,28.2,10.7,25.6,8.3z M22.7,10.6c-0.6-1.2-1.3-2.3-2.2-3.1c1.4,0.4,2.7,1.1,3.8,2
	C23.7,9.9,23.2,10.3,22.7,10.6z M23.1,17.5h-5V13c1.4-0.1,2.8-0.4,4-0.9c0.6,1.5,0.9,3.1,1,4.8C23.1,17.1,23.1,17.3,23.1,17.5z
	 M18.1,11.9V7.1c1.4,0.8,2.7,2.2,3.6,4C20.5,11.5,19.3,11.8,18.1,11.9z M24.4,25.4c-0.5-0.4-1.1-0.7-1.7-1c0.8-1.7,1.4-3.7,1.5-5.8
	h3.7C27.6,21.3,26.4,23.7,24.4,25.4z M18.1,23.3v-4.6h5c-0.1,1.9-0.6,3.8-1.4,5.3C20.5,23.6,19.3,23.3,18.1,23.3z M23.4,26.1
	c-0.9,0.6-2,1.1-3,1.4c0.7-0.6,1.3-1.4,1.8-2.2C22.6,25.6,23,25.9,23.4,26.1z M18.1,27.9v-3.5c1,0.1,2,0.2,3,0.6
	C20.3,26.2,19.3,27.2,18.1,27.9z M28,17.5L28,17.5h-3.8c0-0.2,0-0.5,0-0.7c-0.1-1.9-0.4-3.6-1.1-5.2c0.7-0.4,1.3-0.8,1.9-1.3
	C27,12.2,28,14.8,28,17.5z M11.7,11.5c-0.6,1.6-1,3.4-1.1,5.3c0,0.2,0,0.5,0,0.7H7l0,0c0-2.7,1-5.3,2.9-7.2
	C10.5,10.7,11.1,11.1,11.7,11.5z M11.8,16.9c0.1-1.7,0.4-3.4,1-4.9c1.3,0.6,2.7,0.9,4.2,1v4.5h-5.2C11.8,17.3,11.8,17.1,11.8,16.9z
	 M10.7,9.5c1-0.9,2.2-1.6,3.5-2c-0.8,0.8-1.5,1.8-2.1,2.9C11.7,10.2,11.2,9.9,10.7,9.5z M10.7,18.7c0.1,2.1,0.7,4.1,1.5,5.8
	c-0.5,0.3-1.1,0.6-1.5,0.9c-2-1.7-3.3-4.1-3.6-6.8h3.6V18.7z M12.8,25.5c0.5,0.8,1,1.4,1.7,2c-1-0.3-1.9-0.8-2.8-1.4
	C12,25.9,12.4,25.7,12.8,25.5z M11.8,18.7h5.1v4.6c-1.3,0.1-2.5,0.3-3.7,0.8C12.4,22.5,11.9,20.6,11.8,18.7z M16.9,24.4V28h-0.1
	c-1.2-0.7-2.2-1.7-3-2.9C14.8,24.7,15.9,24.5,16.9,24.4z M16.9,7v4.8c-1.3-0.1-2.5-0.4-3.7-0.9c0.9-1.8,2.1-3.2,3.5-3.9
	C16.8,7,16.9,7,16.9,7z"/>
</svg>
