<?xml version="1.0" encoding="utf-8"?>
<!-- Generator: Adobe Illustrator 19.2.1, SVG Export Plug-In . SVG Version: 6.00 Build 0)  -->
<svg version="1.1" id="Layer_1" xmlns="http://www.w3.org/2000/svg" xmlns:xlink="http://www.w3.org/1999/xlink" x="0px" y="0px"
	 viewBox="0 0 30 30" style="enable-background:new 0 0 30 30;" xml:space="preserve">
<style type="text/css">
	.st0{fill:#FF3300;}
	.st1{fill:#FFFFFF;}
</style>
<path class="st0" d="M27.6,30H2.4C1.1,30,0,28.9,0,27.6V2.4C0,1.1,1.1,0,2.4,0h25.2C28.9,0,30,1.1,30,2.4v25.2
	C30,28.9,28.9,30,27.6,30"/>
<path class="st1" d="M18.3,4.7H7v20.6h16V9.4L18.3,4.7z M21.6,23.7H8.4V6.3h9.2v3.9h3.9L21.6,23.7z"/>
<g>
	<rect x="11" y="12.8" class="st1" width="8" height="1.2"/>
</g>
<g>
	<rect x="11" y="15.8" class="st1" width="8" height="1.2"/>
</g>
<g>
	<rect x="11" y="18.8" class="st1" width="8" height="1.2"/>
</g>
</svg>
