<?xml version="1.0" encoding="utf-8"?>
<!-- Generator: Adobe Illustrator 19.2.1, SVG Export Plug-In . SVG Version: 6.00 Build 0)  -->
<svg version="1.1" id="Layer_1" xmlns="http://www.w3.org/2000/svg" xmlns:xlink="http://www.w3.org/1999/xlink" x="0px" y="0px"
	 viewBox="0 0 14 14" style="enable-background:new 0 0 14 14;" xml:space="preserve">
<style type="text/css">
	.st0{fill:#FF3300;}
	.st1{fill:#FFFFFF;}
</style>
<path class="st0" d="M0,3c0-1.7,1.3-3,3-3h8c1.7,0,3,1.3,3,3v8c0,1.7-1.3,3-3,3H3c-1.7,0-3-1.3-3-3V3z"/>
<g>
	<path class="st1" d="M8.3,3.6C8.8,3.7,9.2,4,9.5,4.5C9.8,4.8,10,5.2,10,5.6c0.1,0.4,0.1,0.8,0.1,1.2c0,1-0.2,1.8-0.6,2.4
		c-0.5,0.9-1.3,1.3-2.4,1.3h-3V3.4h3.1C7.6,3.4,8,3.5,8.3,3.6z M5.5,4.7v4.7h1.4c0.7,0,1.2-0.3,1.5-1C8.6,8,8.6,7.6,8.6,7
		c0-0.7-0.1-1.3-0.3-1.7C8.1,4.8,7.6,4.7,6.9,4.7H5.5z"/>
</g>
</svg>
